<svg width="32" height="36" viewBox="0 0 32 36" fill="none" xmlns="http://www.w3.org/2000/svg">
<path fill-rule="evenodd" clip-rule="evenodd" d="M21.2932 33.5951C24.3488 32.7146 27.5478 32.2704 30.6511 31.8635C31.3195 31.7782 31.9401 32.2542 31.9878 32.9249C32.0833 33.596 31.6056 34.2098 30.9849 34.2951C27.9771 34.6868 24.8741 35.106 21.9618 35.9536C21.3412 36.1374 20.6725 35.759 20.4815 35.1079C20.2906 34.4574 20.6726 33.7794 21.2932 33.5951Z" fill="#080808"/>
<path fill-rule="evenodd" clip-rule="evenodd" d="M12.0319 21.112C16.9494 15.9591 22.4875 11.4695 27.3095 6.17836C27.7392 5.6842 28.5031 5.65772 28.9805 6.11904C29.458 6.58084 29.5055 7.35738 29.0281 7.85154C24.2061 13.1579 18.6679 17.6622 13.7504 22.8303C13.273 23.3127 12.5093 23.3196 12.0319 22.845C11.6022 22.371 11.5544 21.5944 12.0319 21.112Z" fill="#080808"/>
<path fill-rule="evenodd" clip-rule="evenodd" d="M2.81729 1.29215C2.67406 4.24144 2.53112 7.19072 2.38789 10.1405C2.38789 10.816 1.81469 11.3377 1.1463 11.3048C0.477897 11.2715 0.000748842 10.6964 0.000748842 10.0204C0.143977 7.0662 0.286926 4.1125 0.430154 1.15881C0.477897 0.483257 1.0509 -0.0349262 1.7193 0.00184175C2.33996 0.0386097 2.86504 0.617094 2.81729 1.29215Z" fill="#080808"/>
</svg>
