<svg width="24" height="24" viewBox="0 0 24 24" fill="none" xmlns="http://www.w3.org/2000/svg">
<g clip-path="url(#clip0_630_2720)">
<path fill-rule="evenodd" clip-rule="evenodd" d="M9.27 15.29L17.248 9.393C17.639 9.103 18.198 9.216 18.385 9.665C19.365 12.034 18.927 14.88 16.975 16.834C15.024 18.788 12.308 19.216 9.826 18.24L7.115 19.497C11.004 22.158 15.726 21.5 18.677 18.544C21.018 16.2 21.743 13.005 21.065 10.124L21.071 10.131C20.088 5.899 21.313 4.207 23.821 0.748C23.881 0.666 23.941 0.584 24 0.5L20.699 3.805V3.795L9.267 15.292M7.623 16.723C4.831 14.053 5.313 9.922 7.694 7.539C9.455 5.776 12.341 5.056 14.86 6.114L17.565 4.864C17.0028 4.45042 16.3876 4.11409 15.736 3.864C14.0978 3.1935 12.2979 3.02239 10.5627 3.37221C8.82748 3.72203 7.23446 4.57714 5.984 5.83C3.451 8.366 2.654 12.266 4.022 15.594C5.044 18.081 3.369 19.84 1.682 21.616C1.083 22.246 0.483 22.875 0 23.541L7.62 16.726" fill="white"/>
</g>
<defs>
<clipPath id="clip0_630_2720">
<rect width="24" height="24" fill="white"/>
</clipPath>
</defs>
</svg>
