<svg width="24" height="24" viewBox="0 0 24 24" fill="none" xmlns="http://www.w3.org/2000/svg">
<path fill-rule="evenodd" clip-rule="evenodd" d="M21.5498 10.0039C21.7995 9.2636 21.886 8.47802 21.8035 7.70109C21.721 6.92416 21.4714 6.17429 21.0718 5.50292C19.8548 3.41292 17.4098 2.33692 15.0218 2.84292C14.4928 2.25732 13.8459 1.79033 13.1236 1.47268C12.4013 1.15503 11.6198 0.993906 10.8308 0.999918C8.38976 0.994918 6.22376 2.54592 5.47276 4.83792C4.70082 4.99245 3.97055 5.30935 3.33041 5.7676C2.69027 6.22586 2.15488 6.81499 1.75976 7.49592C1.16254 8.51018 0.907301 9.68961 1.03173 10.86C1.15615 12.0305 1.65365 13.1299 2.45076 13.9959C2.20077 14.7363 2.11397 15.522 2.19631 16.2991C2.27864 17.0763 2.52817 17.8263 2.92776 18.4979C4.14476 20.5879 6.58976 21.6629 8.97776 21.1579C9.5065 21.7434 10.1533 22.2103 10.8754 22.5278C11.5976 22.8453 12.3789 23.0062 13.1678 22.9999C15.6108 23.0059 17.7778 21.4539 18.5288 19.1599C19.3012 19.0054 20.032 18.6883 20.6725 18.2297C21.313 17.7711 21.8486 17.1814 22.2438 16.4999C22.8399 15.4857 23.0943 14.3068 22.9695 13.137C22.8447 11.9673 22.3474 10.8686 21.5508 10.0029L21.5498 10.0039ZM13.1688 21.5619C12.1934 21.5643 11.2476 21.227 10.4938 20.6079C10.5278 20.5899 10.5868 20.5579 10.6258 20.5339L15.0658 18.0039C15.1766 17.9421 15.2688 17.8517 15.3328 17.7421C15.3968 17.6325 15.4303 17.5078 15.4298 17.3809V11.2049L17.3068 12.2739C17.3268 12.2839 17.3398 12.3029 17.3428 12.3239V17.4389C17.3398 19.7129 15.4728 21.5569 13.1688 21.5619ZM4.19176 17.7799C3.70239 16.9475 3.52582 15.9678 3.69376 15.0169C3.72576 15.0369 3.78376 15.0719 3.82476 15.0949L8.26476 17.6249C8.48976 17.7549 8.76876 17.7549 8.99476 17.6249L14.4148 14.5369V16.6749C14.4152 16.6859 14.413 16.6968 14.4083 16.7067C14.4036 16.7167 14.3965 16.7253 14.3878 16.7319L9.89976 19.2879C7.90076 20.4239 5.34776 19.7479 4.19276 17.7779L4.19176 17.7799ZM3.02276 8.21592C3.51405 7.37792 4.28374 6.73881 5.19776 6.40992L5.19576 6.56092V11.6209C5.19515 11.748 5.22859 11.8729 5.29261 11.9826C5.35662 12.0923 5.44887 12.1829 5.55976 12.2449L10.9798 15.3319L9.10376 16.4019C9.09449 16.4079 9.08388 16.4114 9.07289 16.4123C9.0619 16.4132 9.05087 16.4113 9.04076 16.4069L4.55176 13.8479C2.55676 12.7079 1.87276 10.1899 3.02176 8.21792L3.02276 8.21592ZM18.4398 11.7559L13.0198 8.66792L14.8958 7.59992C14.905 7.5938 14.9155 7.59006 14.9265 7.58901C14.9375 7.58796 14.9486 7.58965 14.9588 7.59392L19.4478 10.1509C21.4458 11.2909 22.1308 13.8129 20.9768 15.7839C20.4851 16.6214 19.716 17.2606 18.8028 17.5909V12.3799C18.8034 12.2531 18.7701 12.1285 18.7062 12.0189C18.6424 11.9094 18.5504 11.8189 18.4398 11.7569V11.7559ZM20.3068 8.98292C20.2631 8.95636 20.2191 8.93036 20.1748 8.90492L15.7348 6.37492C15.6239 6.31113 15.4982 6.27756 15.3703 6.27756C15.2423 6.27756 15.1167 6.31113 15.0058 6.37492L9.58576 9.46292V7.32492C9.58533 7.31394 9.58755 7.30303 9.59226 7.2931C9.59696 7.28317 9.60399 7.27453 9.61276 7.26792L14.0998 4.71292C16.0998 3.57592 18.6548 4.25292 19.8068 6.22592C20.2938 7.05892 20.4718 8.03492 20.3068 8.98292ZM8.56576 12.7929L6.68876 11.7249C6.67897 11.7201 6.67053 11.7129 6.66424 11.704C6.65795 11.6951 6.654 11.6848 6.65276 11.6739V6.55892C6.65376 4.28192 8.52576 2.43692 10.8338 2.43892C11.8098 2.43892 12.7538 2.77692 13.5048 3.39292C13.4708 3.41092 13.4128 3.44292 13.3738 3.46592L8.93376 5.99592C8.82277 6.05763 8.73035 6.14798 8.66616 6.25756C8.60196 6.36713 8.56833 6.49192 8.56876 6.61892L8.56576 12.7919V12.7929ZM9.58576 10.6249L11.9998 9.24992L14.4138 10.6249V13.3749L11.9998 14.7499L9.58476 13.3749V10.6249H9.58576Z" fill="white"/>
</svg>
